<svg width="1538" height="426" viewBox="0 0 1538 426" fill="none" xmlns="http://www.w3.org/2000/svg">
<rect x="5.95538" y="60.5154" width="622.09" height="260.821" rx="16.529" fill="#F5F5DC" stroke="#F5F5DC" stroke-width="6.94201"/>
<rect x="23" y="86.3757" width="588" height="189" fill="#2E6F40"/>
<path d="M301.694 361.044V321.376H333.145V361.044C333.145 368.978 366.344 370.962 369.839 370.962V385.837H265V370.962C273.387 370.962 301.694 364.35 301.694 361.044Z" fill="#F5F5DC" stroke="#F5F5DC" stroke-width="6.94201"/>
<path d="M616.83 276.376V88.9414H534.895C514.545 88.9414 496.694 92.8686 481.342 100.723C465.99 108.577 454.03 119.466 445.462 133.39C436.893 147.314 432.609 163.737 432.609 182.659C432.609 201.402 436.893 217.825 445.462 231.927C454.03 245.851 465.99 256.74 481.342 264.594C496.694 272.449 514.545 276.376 534.895 276.376H616.83ZM582.021 246.922H536.501C522.399 246.922 510.26 244.244 500.085 238.889C489.732 233.534 481.788 226.036 476.255 216.397C470.542 206.757 467.686 195.511 467.686 182.659C467.686 169.627 470.542 158.381 476.255 148.92C481.788 139.281 489.732 131.784 500.085 126.428C510.26 121.073 522.399 118.395 536.501 118.395H582.021V246.922Z" fill="#F5F5DC"/>
<path d="M214.263 289L145.054 80.1806H185.327L247.078 269.013H227.091L291.228 80.1806H327.026L389.373 269.013H369.983L433.225 80.1806H470.216L401.007 289H359.84L302.862 118.663H313.602L255.729 289H214.263Z" fill="#F5F5DC"/>
<path d="M25.1697 276.376V88.9414H112.996C135.488 88.9414 152.625 93.4042 164.407 102.33C176.188 111.077 182.079 122.858 182.079 137.674C182.079 147.671 179.758 156.239 175.117 163.38C170.476 170.341 164.228 175.786 156.374 179.713C148.698 183.462 140.308 185.336 131.204 185.336L136.024 175.697C146.556 175.697 156.017 177.66 164.407 181.588C172.797 185.336 179.401 190.87 184.221 198.189C189.219 205.508 191.718 214.612 191.718 225.501C191.718 241.567 185.56 254.062 173.243 262.988C160.926 271.913 142.629 276.376 118.351 276.376H25.1697ZM59.979 249.064H116.209C129.24 249.064 139.237 246.922 146.199 242.638C153.161 238.353 156.642 231.481 156.642 222.02C156.642 212.737 153.161 205.954 146.199 201.67C139.237 197.207 129.24 194.976 116.209 194.976H57.3013V167.932H109.247C121.386 167.932 130.668 165.79 137.095 161.505C143.7 157.221 147.002 150.795 147.002 142.226C147.002 133.479 143.7 126.964 137.095 122.68C130.668 118.395 121.386 116.253 109.247 116.253H59.979V249.064Z" fill="#F5F5DC"/>
<path d="M609.548 86.7959H22.4517V275.222H609.548V86.7959Z" stroke="#2E6F40" stroke-width="4.95858"/>
<path d="M824.01 117C824.01 128.333 820.01 138.133 812.01 146.4C804.01 154.533 792.343 160.4 777.01 164C785.277 166.267 791.544 170 795.81 175.2C800.077 180.267 802.21 186.133 802.21 192.8C802.21 203.333 798.877 212.467 792.21 220.2C785.677 227.933 776.077 233.933 763.41 238.2C750.743 242.333 735.477 244.4 717.61 244.4C710.943 244.4 705.61 244.2 701.61 243.8C701.477 247.533 699.877 250.333 696.81 252.2C693.743 254.067 689.81 255 685.01 255C680.21 255 676.877 253.933 675.01 251.8C673.277 249.667 672.543 246.533 672.81 242.4C674.01 223.733 676.343 204.2 679.81 183.8C683.277 163.267 687.677 143.467 693.01 124.4C693.943 121.067 695.81 118.733 698.61 117.4C701.41 116.067 705.077 115.4 709.61 115.4C717.743 115.4 721.81 117.667 721.81 122.2C721.81 124.067 721.41 126.2 720.61 128.6C717.143 139 713.677 153.133 710.21 171C706.743 188.733 704.277 205.667 702.81 221.8C709.21 222.333 714.41 222.6 718.41 222.6C737.077 222.6 750.743 219.933 759.41 214.6C768.21 209.133 772.61 202.2 772.61 193.8C772.61 187.933 770.077 183 765.01 179C760.077 175 751.743 172.8 740.01 172.4C737.343 172.267 735.477 171.6 734.41 170.4C733.343 169.2 732.81 167.267 732.81 164.6C732.81 160.733 733.61 157.6 735.21 155.2C736.81 152.8 739.743 151.533 744.01 151.4C753.477 151.133 762.01 149.733 769.61 147.2C777.343 144.667 783.41 141.133 787.81 136.6C792.21 131.933 794.41 126.533 794.41 120.4C794.41 112.667 790.61 106.6 783.01 102.2C775.41 97.6667 763.743 95.4 748.01 95.4C733.743 95.4 719.943 97.2667 706.61 101C693.277 104.6 681.943 109.2 672.61 114.8C668.343 117.333 664.743 118.6 661.81 118.6C659.41 118.6 657.543 117.8 656.21 116.2C655.01 114.467 654.41 112.333 654.41 109.8C654.41 106.467 655.077 103.6 656.41 101.2C657.877 98.8 661.277 96.0667 666.61 93C677.81 86.6 690.943 81.6 706.01 78C721.077 74.4 736.477 72.6 752.21 72.6C776.343 72.6 794.344 76.6667 806.21 84.8C818.077 92.9333 824.01 103.667 824.01 117ZM920.409 183.6C922.142 183.6 923.475 184.467 924.409 186.2C925.342 187.933 925.809 190.133 925.809 192.8C925.809 199.2 923.875 203 920.009 204.2C912.009 207 903.209 208.6 893.609 209C891.075 220.2 886.075 229.2 878.609 236C871.142 242.667 862.675 246 853.209 246C845.209 246 838.342 244.067 832.609 240.2C827.009 236.333 822.742 231.2 819.809 224.8C816.875 218.4 815.409 211.467 815.409 204C815.409 193.867 817.342 184.867 821.209 177C825.075 169 830.409 162.8 837.209 158.4C844.009 153.867 851.542 151.6 859.809 151.6C869.942 151.6 878.075 155.133 884.209 162.2C890.475 169.133 894.142 177.733 895.209 188C901.475 187.6 908.942 186.267 917.609 184C918.675 183.733 919.609 183.6 920.409 183.6ZM854.809 224.8C859.075 224.8 862.742 223.067 865.809 219.6C869.009 216.133 871.142 211.133 872.209 204.6C868.075 201.8 864.875 198.133 862.609 193.6C860.475 189.067 859.409 184.267 859.409 179.2C859.409 177.067 859.609 174.933 860.009 172.8H859.009C853.675 172.8 849.209 175.4 845.609 180.6C842.142 185.667 840.409 192.867 840.409 202.2C840.409 209.533 841.809 215.133 844.609 219C847.542 222.867 850.942 224.8 854.809 224.8ZM929.043 246C923.043 246 918.11 243.267 914.243 237.8C910.51 232.2 908.643 225.267 908.643 217C908.643 207 909.31 197.867 910.643 189.6C911.976 181.2 914.176 172.333 917.243 163C918.576 159 920.443 156.133 922.843 154.4C925.243 152.667 929.043 151.8 934.243 151.8C937.176 151.8 939.176 152.267 940.243 153.2C941.443 154.133 942.043 155.533 942.043 157.4C942.043 158.467 941.31 162.067 939.843 168.2C938.51 173.133 937.443 177.6 936.643 181.6C933.976 195.6 932.643 204.933 932.643 209.6C932.643 212.4 932.976 214.4 933.643 215.6C934.31 216.667 935.376 217.2 936.843 217.2C938.843 217.2 941.31 215.2 944.243 211.2C947.31 207.2 950.51 201.133 953.843 193C957.31 184.867 960.643 174.867 963.843 163C964.91 159 966.51 156.133 968.643 154.4C970.91 152.667 974.243 151.8 978.643 151.8C981.71 151.8 983.843 152.2 985.043 153C986.243 153.667 986.843 155 986.843 157C986.843 160.333 985.176 169.467 981.843 184.4C978.11 201.467 976.243 212 976.243 216C976.243 218.533 976.776 220.533 977.843 222C978.91 223.333 980.31 224 982.043 224C984.71 224 987.843 222.4 991.443 219.2C995.176 215.867 1000.11 210.533 1006.24 203.2C1007.84 201.333 1009.64 200.4 1011.64 200.4C1013.38 200.4 1014.71 201.2 1015.64 202.8C1016.71 204.4 1017.24 206.6 1017.24 209.4C1017.24 214.733 1015.98 218.867 1013.44 221.8C1007.71 228.867 1001.51 234.667 994.843 239.2C988.31 243.733 980.843 246 972.443 246C966.043 246 961.31 243.533 958.243 238.6C955.31 233.667 953.843 226.733 953.843 217.8C951.576 226.867 948.176 233.867 943.643 238.8C939.11 243.6 934.243 246 929.043 246ZM1076.83 200.4C1078.56 200.4 1079.89 201.2 1080.83 202.8C1081.89 204.4 1082.43 206.6 1082.43 209.4C1082.43 214.733 1081.16 218.867 1078.63 221.8C1072.89 228.867 1066.63 234.667 1059.83 239.2C1053.16 243.733 1045.56 246 1037.03 246C1025.29 246 1016.56 240.667 1010.83 230C1005.23 219.333 1002.43 205.533 1002.43 188.6C1002.43 172.333 1004.49 153.8 1008.63 133C1012.89 112.2 1019.09 94.3333 1027.23 79.4C1035.49 64.4667 1045.29 57 1056.63 57C1063.03 57 1068.03 60 1071.63 66C1075.36 71.8667 1077.23 80.3333 1077.23 91.4C1077.23 107.267 1072.83 125.667 1064.03 146.6C1055.23 167.533 1043.29 188.267 1028.23 208.8C1029.16 214.267 1030.69 218.2 1032.83 220.6C1034.96 222.867 1037.76 224 1041.23 224C1046.69 224 1051.49 222.467 1055.63 219.4C1059.76 216.2 1065.03 210.8 1071.43 203.2C1073.03 201.333 1074.83 200.4 1076.83 200.4ZM1052.23 76.8C1049.16 76.8 1045.69 82.3333 1041.83 93.4C1037.96 104.467 1034.56 118.2 1031.63 134.6C1028.69 151 1027.09 166.733 1026.83 181.8C1036.29 166.2 1043.83 150.6 1049.43 135C1055.03 119.267 1057.83 104.933 1057.83 92C1057.83 81.8667 1055.96 76.8 1052.23 76.8ZM1155.46 200.4C1157.19 200.4 1158.53 201.2 1159.46 202.8C1160.53 204.4 1161.06 206.6 1161.06 209.4C1161.06 214.733 1159.79 218.867 1157.26 221.8C1152.33 227.8 1145.33 233.333 1136.26 238.4C1127.33 243.467 1117.73 246 1107.46 246C1093.46 246 1082.59 242.2 1074.86 234.6C1067.13 227 1063.26 216.6 1063.26 203.4C1063.26 194.2 1065.19 185.667 1069.06 177.8C1072.93 169.8 1078.26 163.467 1085.06 158.8C1091.99 154.133 1099.79 151.8 1108.46 151.8C1116.19 151.8 1122.39 154.133 1127.06 158.8C1131.73 163.333 1134.06 169.533 1134.06 177.4C1134.06 186.6 1130.73 194.533 1124.06 201.2C1117.53 207.733 1106.39 212.933 1090.66 216.8C1093.99 222.933 1100.33 226 1109.66 226C1115.66 226 1122.46 223.933 1130.06 219.8C1137.79 215.533 1144.46 210 1150.06 203.2C1151.66 201.333 1153.46 200.4 1155.46 200.4ZM1105.06 171.4C1100.13 171.4 1095.93 174.267 1092.46 180C1089.13 185.733 1087.46 192.667 1087.46 200.8V201.2C1095.33 199.333 1101.53 196.533 1106.06 192.8C1110.59 189.067 1112.86 184.733 1112.86 179.8C1112.86 177.267 1112.13 175.267 1110.66 173.8C1109.33 172.2 1107.46 171.4 1105.06 171.4ZM1244.75 184.2C1245.15 184.067 1245.82 184 1246.75 184C1248.75 184 1250.29 184.667 1251.35 186C1252.42 187.333 1252.95 189.133 1252.95 191.4C1252.95 195.533 1252.15 198.8 1250.55 201.2C1248.95 203.467 1246.55 205.133 1243.35 206.2C1237.22 208.2 1230.69 209.2 1223.75 209.2C1217.89 209.2 1212.35 208.4 1207.15 206.8C1203.29 213.067 1199.02 219.533 1194.35 226.2C1189.02 233.8 1184.42 239 1180.55 241.8C1176.69 244.6 1172.29 246 1167.35 246C1161.89 246 1157.55 243.867 1154.35 239.6C1151.29 235.333 1149.35 228.6 1148.55 219.4C1146.95 200.733 1146.15 184.4 1146.15 170.4V163.4C1146.29 159 1147.49 155.933 1149.75 154.2C1152.02 152.467 1155.42 151.6 1159.95 151.6C1163.42 151.6 1165.95 152.4 1167.55 154C1169.29 155.467 1170.15 158 1170.15 161.6C1170.15 176.933 1171.09 196.867 1172.95 221.4C1180.95 209.533 1186.95 200.067 1190.95 193C1188.95 189.133 1187.95 184.533 1187.95 179.2C1187.95 174.667 1188.95 170.267 1190.95 166C1192.95 161.733 1195.69 158.267 1199.15 155.6C1202.62 152.933 1206.55 151.6 1210.95 151.6C1214.82 151.6 1217.95 153 1220.35 155.8C1222.75 158.467 1223.95 162.4 1223.95 167.6C1223.95 173.6 1222.35 180.467 1219.15 188.2C1224.22 187.933 1230.95 186.933 1239.35 185.2L1244.75 184.2ZM1260.2 246C1251.93 246 1245.33 243 1240.4 237C1235.46 231 1233 223.133 1233 213.4C1233 202.733 1235.46 192.667 1240.4 183.2C1245.33 173.6 1251.86 165.933 1260 160.2C1268.26 154.333 1277 151.4 1286.2 151.4C1289.13 151.4 1291.06 152 1292 153.2C1293.06 154.267 1293.93 156.267 1294.6 159.2C1297.4 158.667 1300.33 158.4 1303.4 158.4C1309.93 158.4 1313.2 160.733 1313.2 165.4C1313.2 168.2 1312.2 174.867 1310.2 185.4C1307.13 200.733 1305.6 211.4 1305.6 217.4C1305.6 219.4 1306.06 221 1307 222.2C1308.06 223.4 1309.4 224 1311 224C1313.53 224 1316.6 222.4 1320.2 219.2C1323.8 215.867 1328.66 210.533 1334.8 203.2C1336.4 201.333 1338.2 200.4 1340.2 200.4C1341.93 200.4 1343.26 201.2 1344.2 202.8C1345.26 204.4 1345.8 206.6 1345.8 209.4C1345.8 214.733 1344.53 218.867 1342 221.8C1336.53 228.6 1330.73 234.333 1324.6 239C1318.46 243.667 1312.53 246 1306.8 246C1302.4 246 1298.33 244.533 1294.6 241.6C1291 238.533 1288.26 234.4 1286.4 229.2C1279.46 240.4 1270.73 246 1260.2 246ZM1267.4 225.8C1270.33 225.8 1273.13 224.067 1275.8 220.6C1278.46 217.133 1280.4 212.533 1281.6 206.8L1289 170C1283.4 170.133 1278.2 172.267 1273.4 176.4C1268.73 180.4 1265 185.733 1262.2 192.4C1259.4 199.067 1258 206.133 1258 213.6C1258 217.733 1258.8 220.8 1260.4 222.8C1262.13 224.8 1264.46 225.8 1267.4 225.8ZM1343.74 246C1338.67 246 1335.07 243.333 1332.94 238C1330.94 232.667 1329.94 224.133 1329.94 212.4C1329.94 195.067 1332.41 178.6 1337.34 163C1338.54 159.133 1340.47 156.333 1343.14 154.6C1345.94 152.733 1349.81 151.8 1354.74 151.8C1357.41 151.8 1359.27 152.133 1360.34 152.8C1361.41 153.467 1361.94 154.733 1361.94 156.6C1361.94 158.733 1360.94 163.533 1358.94 171C1357.61 176.333 1356.54 181 1355.74 185C1354.94 189 1354.27 193.933 1353.74 199.8C1358.14 188.333 1363.07 179 1368.54 171.8C1374.01 164.6 1379.34 159.467 1384.54 156.4C1389.87 153.333 1394.74 151.8 1399.14 151.8C1407.81 151.8 1412.14 156.133 1412.14 164.8C1412.14 166.533 1411.54 170.733 1410.34 177.4C1409.27 182.733 1408.74 186.067 1408.74 187.4C1408.74 192.067 1410.41 194.4 1413.74 194.4C1417.47 194.4 1422.27 191.467 1428.14 185.6C1429.87 183.867 1431.67 183 1433.54 183C1435.27 183 1436.61 183.8 1437.54 185.4C1438.61 186.867 1439.14 188.867 1439.14 191.4C1439.14 196.333 1437.81 200.2 1435.14 203C1431.41 206.867 1427.01 210.2 1421.94 213C1417.01 215.667 1411.74 217 1406.14 217C1399.07 217 1393.67 215.2 1389.94 211.6C1386.34 208 1384.54 203.133 1384.54 197C1384.54 195 1384.74 193 1385.14 191C1385.41 188.333 1385.54 186.533 1385.54 185.6C1385.54 183.467 1384.81 182.4 1383.34 182.4C1381.34 182.4 1378.67 184.667 1375.34 189.2C1372.14 193.6 1368.94 199.467 1365.74 206.8C1362.54 214.133 1359.94 221.867 1357.94 230C1356.47 236.267 1354.74 240.533 1352.74 242.8C1350.87 244.933 1347.87 246 1343.74 246ZM1493.36 200.4C1494.82 211.333 1496.96 222.133 1499.76 232.8C1500.29 234.533 1500.56 236.333 1500.56 238.2C1500.56 244.2 1496.89 247.2 1489.56 247.2C1485.42 247.2 1482.22 246.067 1479.96 243.8C1477.82 241.533 1475.82 237.267 1473.96 231L1473.76 230.2C1468.69 236.467 1464.09 240.667 1459.96 242.8C1455.96 244.933 1451.29 246 1445.96 246C1437.82 246 1431.09 243 1425.76 237C1420.56 230.867 1417.96 222.933 1417.96 213.2C1417.96 202.533 1420.22 192.667 1424.76 183.6C1429.29 174.533 1435.49 167.133 1443.36 161.4C1451.22 155.533 1460.02 152 1469.76 150.8C1472.29 125.6 1477.09 103.667 1484.16 85C1491.36 66.3333 1500.89 57 1512.76 57C1518.49 57 1523.22 59.6 1526.96 64.8C1530.82 70 1532.76 77.8667 1532.76 88.4C1532.76 103.067 1529.16 120.2 1521.96 139.8C1514.76 159.4 1505.22 179.6 1493.36 200.4ZM1510.56 76.6C1506.69 76.6 1503.02 86.4667 1499.56 106.2C1496.22 125.933 1493.96 147.4 1492.76 170.6C1507.56 138.6 1514.96 112.6 1514.96 92.6C1514.96 87.5333 1514.49 83.6 1513.56 80.8C1512.76 78 1511.76 76.6 1510.56 76.6ZM1452.96 225.8C1455.62 225.8 1458.16 224.8 1460.56 222.8C1463.09 220.8 1466.29 216.933 1470.16 211.2C1468.82 201.467 1468.16 191.4 1468.16 181C1468.16 176.867 1468.22 173.667 1468.36 171.4C1461.02 173.533 1454.96 178.4 1450.16 186C1445.36 193.6 1442.96 202 1442.96 211.2C1442.96 220.933 1446.29 225.8 1452.96 225.8Z" fill="#2E6F40"/>
<path d="M738.514 365L708.818 275.4H726.098L752.594 356.424H744.018L771.538 275.4H786.898L813.65 356.424H805.33L832.466 275.4H848.339L818.642 365H800.978L776.53 291.912H781.138L756.306 365H738.514ZM880.961 365.896C873.367 365.896 866.711 364.403 860.993 361.416C855.361 358.344 850.967 354.163 847.809 348.872C844.737 343.581 843.201 337.565 843.201 330.824C843.201 323.997 844.695 317.981 847.681 312.776C850.753 307.485 854.935 303.347 860.225 300.36C865.601 297.373 871.703 295.88 878.529 295.88C885.185 295.88 891.116 297.331 896.321 300.232C901.527 303.133 905.623 307.229 908.609 312.52C911.596 317.811 913.09 324.04 913.09 331.208C913.09 331.891 913.047 332.659 912.961 333.512C912.961 334.365 912.919 335.176 912.833 335.944H855.873V325.32H904.385L898.113 328.648C898.199 324.723 897.388 321.267 895.681 318.28C893.975 315.293 891.628 312.947 888.641 311.24C885.74 309.533 882.369 308.68 878.529 308.68C874.604 308.68 871.148 309.533 868.161 311.24C865.26 312.947 862.956 315.336 861.249 318.408C859.628 321.395 858.817 324.936 858.817 329.032V331.592C858.817 335.688 859.756 339.315 861.633 342.472C863.511 345.629 866.156 348.061 869.569 349.768C872.983 351.475 876.908 352.328 881.345 352.328C885.185 352.328 888.641 351.731 891.713 350.536C894.785 349.341 897.516 347.464 899.905 344.904L908.481 354.76C905.409 358.344 901.527 361.117 896.833 363.08C892.225 364.957 886.935 365.896 880.961 365.896ZM959.947 365.896C954.144 365.896 948.981 364.616 944.458 362.056C939.936 359.496 936.352 355.656 933.707 350.536C931.147 345.331 929.867 338.76 929.867 330.824C929.867 322.803 931.189 316.232 933.835 311.112C936.565 305.992 940.192 302.195 944.715 299.72C949.323 297.16 954.4 295.88 959.947 295.88C966.688 295.88 972.619 297.331 977.739 300.232C982.944 303.133 987.04 307.187 990.027 312.392C993.099 317.597 994.635 323.741 994.635 330.824C994.635 337.907 993.099 344.051 990.027 349.256C987.04 354.461 982.944 358.557 977.739 361.544C972.619 364.445 966.688 365.896 959.947 365.896ZM922.059 365V270.024H938.059V312.52L936.779 330.696L937.291 348.872V365H922.059ZM958.155 352.2C961.995 352.2 965.408 351.347 968.395 349.64C971.467 347.933 973.899 345.459 975.691 342.216C977.483 338.973 978.379 335.176 978.379 330.824C978.379 326.387 977.483 322.589 975.691 319.432C973.899 316.189 971.467 313.715 968.395 312.008C965.408 310.301 961.995 309.448 958.155 309.448C954.315 309.448 950.859 310.301 947.787 312.008C944.715 313.715 942.283 316.189 940.491 319.432C938.699 322.589 937.803 326.387 937.803 330.824C937.803 335.176 938.699 338.973 940.491 342.216C942.283 345.459 944.715 347.933 947.787 349.64C950.859 351.347 954.315 352.2 958.155 352.2ZM1033.92 365V275.4H1073.09C1082.82 275.4 1091.35 277.277 1098.69 281.032C1106.03 284.787 1111.74 289.992 1115.84 296.648C1119.94 303.304 1121.98 311.155 1121.98 320.2C1121.98 329.16 1119.94 337.011 1115.84 343.752C1111.74 350.408 1106.03 355.613 1098.69 359.368C1091.35 363.123 1082.82 365 1073.09 365H1033.92ZM1050.56 350.92H1072.32C1079.06 350.92 1084.86 349.64 1089.73 347.08C1094.68 344.52 1098.47 340.936 1101.12 336.328C1103.85 331.72 1105.22 326.344 1105.22 320.2C1105.22 313.971 1103.85 308.595 1101.12 304.072C1098.47 299.464 1094.68 295.88 1089.73 293.32C1084.86 290.76 1079.06 289.48 1072.32 289.48H1050.56V350.92ZM1163.86 365.896C1156.27 365.896 1149.61 364.403 1143.89 361.416C1138.26 358.344 1133.87 354.163 1130.71 348.872C1127.64 343.581 1126.1 337.565 1126.1 330.824C1126.1 323.997 1127.59 317.981 1130.58 312.776C1133.65 307.485 1137.83 303.347 1143.13 300.36C1148.5 297.373 1154.6 295.88 1161.43 295.88C1168.09 295.88 1174.02 297.331 1179.22 300.232C1184.43 303.133 1188.52 307.229 1191.51 312.52C1194.5 317.811 1195.99 324.04 1195.99 331.208C1195.99 331.891 1195.95 332.659 1195.86 333.512C1195.86 334.365 1195.82 335.176 1195.73 335.944H1138.77V325.32H1187.29L1181.01 328.648C1181.1 324.723 1180.29 321.267 1178.58 318.28C1176.87 315.293 1174.53 312.947 1171.54 311.24C1168.64 309.533 1165.27 308.68 1161.43 308.68C1157.5 308.68 1154.05 309.533 1151.06 311.24C1148.16 312.947 1145.86 315.336 1144.15 318.408C1142.53 321.395 1141.72 324.936 1141.72 329.032V331.592C1141.72 335.688 1142.66 339.315 1144.53 342.472C1146.41 345.629 1149.06 348.061 1152.47 349.768C1155.88 351.475 1159.81 352.328 1164.25 352.328C1168.09 352.328 1171.54 351.731 1174.61 350.536C1177.69 349.341 1180.42 347.464 1182.81 344.904L1191.38 354.76C1188.31 358.344 1184.43 361.117 1179.73 363.08C1175.13 364.957 1169.83 365.896 1163.86 365.896ZM1226.08 365.896C1220.36 365.896 1214.86 365.171 1209.57 363.72C1204.36 362.184 1200.22 360.349 1197.15 358.216L1203.29 346.056C1206.37 348.019 1210.04 349.64 1214.3 350.92C1218.57 352.2 1222.84 352.84 1227.1 352.84C1232.14 352.84 1235.76 352.157 1237.98 350.792C1240.29 349.427 1241.44 347.592 1241.44 345.288C1241.44 343.411 1240.67 342.003 1239.13 341.064C1237.6 340.04 1235.59 339.272 1233.12 338.76C1230.64 338.248 1227.87 337.779 1224.8 337.352C1221.81 336.925 1218.78 336.371 1215.71 335.688C1212.72 334.92 1209.99 333.853 1207.52 332.488C1205.04 331.037 1203.04 329.117 1201.5 326.728C1199.97 324.339 1199.2 321.181 1199.2 317.256C1199.2 312.904 1200.44 309.149 1202.91 305.992C1205.39 302.749 1208.84 300.275 1213.28 298.568C1217.8 296.776 1223.13 295.88 1229.28 295.88C1233.89 295.88 1238.54 296.392 1243.23 297.416C1247.92 298.44 1251.81 299.891 1254.88 301.768L1248.73 313.928C1245.49 311.965 1242.21 310.643 1238.88 309.96C1235.64 309.192 1232.39 308.808 1229.15 308.808C1224.29 308.808 1220.66 309.533 1218.27 310.984C1215.97 312.435 1214.81 314.269 1214.81 316.488C1214.81 318.536 1215.58 320.072 1217.12 321.096C1218.65 322.12 1220.66 322.931 1223.13 323.528C1225.61 324.125 1228.34 324.637 1231.33 325.064C1234.4 325.405 1237.43 325.96 1240.41 326.728C1243.4 327.496 1246.13 328.563 1248.61 329.928C1251.17 331.208 1253.21 333.043 1254.75 335.432C1256.29 337.821 1257.05 340.936 1257.05 344.776C1257.05 349.043 1255.77 352.755 1253.21 355.912C1250.74 359.069 1247.2 361.544 1242.59 363.336C1237.98 365.043 1232.48 365.896 1226.08 365.896ZM1264.43 365V296.648H1280.43V365H1264.43ZM1272.5 285.384C1269.51 285.384 1267.04 284.445 1265.07 282.568C1263.2 280.691 1262.26 278.429 1262.26 275.784C1262.26 273.053 1263.2 270.792 1265.07 269C1267.04 267.123 1269.51 266.184 1272.5 266.184C1275.48 266.184 1277.92 267.08 1279.79 268.872C1281.76 270.579 1282.74 272.755 1282.74 275.4C1282.74 278.216 1281.8 280.605 1279.92 282.568C1278.04 284.445 1275.57 285.384 1272.5 285.384ZM1326.01 390.728C1319.69 390.728 1313.51 389.875 1307.45 388.168C1301.48 386.547 1296.57 384.157 1292.73 381L1299.9 368.968C1302.88 371.443 1306.64 373.405 1311.16 374.856C1315.77 376.392 1320.42 377.16 1325.11 377.16C1332.62 377.16 1338.13 375.411 1341.63 371.912C1345.12 368.499 1346.87 363.336 1346.87 356.424V344.264L1348.15 328.776L1347.64 313.288V296.648H1362.87V354.632C1362.87 367.005 1359.72 376.093 1353.4 381.896C1347.09 387.784 1337.96 390.728 1326.01 390.728ZM1323.96 361.928C1317.48 361.928 1311.59 360.563 1306.3 357.832C1301.09 355.016 1296.95 351.133 1293.88 346.184C1290.89 341.235 1289.4 335.432 1289.4 328.776C1289.4 322.205 1290.89 316.445 1293.88 311.496C1296.95 306.547 1301.09 302.707 1306.3 299.976C1311.59 297.245 1317.48 295.88 1323.96 295.88C1329.76 295.88 1334.97 297.032 1339.58 299.336C1344.19 301.64 1347.85 305.224 1350.59 310.088C1353.4 314.952 1354.81 321.181 1354.81 328.776C1354.81 336.371 1353.4 342.643 1350.59 347.592C1347.85 352.456 1344.19 356.083 1339.58 358.472C1334.97 360.776 1329.76 361.928 1323.96 361.928ZM1326.39 348.36C1330.4 348.36 1333.99 347.549 1337.15 345.928C1340.3 344.221 1342.73 341.917 1344.44 339.016C1346.23 336.029 1347.13 332.616 1347.13 328.776C1347.13 324.936 1346.23 321.565 1344.44 318.664C1342.73 315.677 1340.3 313.416 1337.15 311.88C1333.99 310.259 1330.4 309.448 1326.39 309.448C1322.38 309.448 1318.76 310.259 1315.51 311.88C1312.36 313.416 1309.88 315.677 1308.09 318.664C1306.38 321.565 1305.53 324.936 1305.53 328.776C1305.53 332.616 1306.38 336.029 1308.09 339.016C1309.88 341.917 1312.36 344.221 1315.51 345.928C1318.76 347.549 1322.38 348.36 1326.39 348.36ZM1416.29 295.88C1421.75 295.88 1426.62 296.947 1430.88 299.08C1435.24 301.213 1438.65 304.499 1441.12 308.936C1443.6 313.288 1444.84 318.92 1444.84 325.832V365H1428.84V327.88C1428.84 321.821 1427.39 317.299 1424.48 314.312C1421.67 311.325 1417.7 309.832 1412.58 309.832C1408.83 309.832 1405.5 310.6 1402.6 312.136C1399.7 313.672 1397.43 315.976 1395.81 319.048C1394.28 322.035 1393.51 325.832 1393.51 330.44V365H1377.51V296.648H1392.74V315.08L1390.05 309.448C1392.44 305.096 1395.9 301.768 1400.42 299.464C1405.03 297.075 1410.32 295.88 1416.29 295.88Z" fill="white"/>
</svg>
