<svg width="632" height="430" viewBox="0 0 632 430" fill="none" xmlns="http://www.w3.org/2000/svg">
<rect x="5.95489" y="60.5154" width="622.09" height="260.821" rx="16.529" fill="#F5F5DC" stroke="#F5F5DC" stroke-width="6.94201"/>
<rect x="23" y="86.3757" width="588" height="189" fill="#2E6F40"/>
<path d="M301.694 361.044V321.376H333.145V361.044C333.145 368.978 366.344 370.962 369.839 370.962V385.837H265V370.962C273.387 370.962 301.694 364.35 301.694 361.044Z" fill="#F5F5DC" stroke="#F5F5DC" stroke-width="6.94201"/>
<path d="M616.83 276.376V88.9417H534.895C514.545 88.9417 496.694 92.8689 481.342 100.723C465.99 108.578 454.03 119.467 445.462 133.39C436.893 147.314 432.609 163.737 432.609 182.659C432.609 201.402 436.893 217.825 445.462 231.927C454.03 245.851 465.99 256.74 481.342 264.594C496.694 272.449 514.545 276.376 534.895 276.376H616.83ZM582.021 246.922H536.501C522.399 246.922 510.26 244.244 500.085 238.889C489.732 233.534 481.788 226.036 476.255 216.397C470.542 206.758 467.686 195.511 467.686 182.659C467.686 169.628 470.542 158.382 476.255 148.921C481.788 139.281 489.732 131.784 500.085 126.429C510.26 121.073 522.399 118.396 536.501 118.396H582.021V246.922Z" fill="#F5F5DC"/>
<path d="M214.263 289L145.054 80.1806H185.327L247.078 269.013H227.091L291.228 80.1806H327.026L389.373 269.013H369.983L433.225 80.1806H470.216L401.007 289H359.84L302.862 118.663H313.602L255.729 289H214.263Z" fill="#F5F5DC"/>
<path d="M25.1697 276.376V88.9414H112.996C135.488 88.9414 152.625 93.4042 164.407 102.33C176.188 111.077 182.079 122.858 182.079 137.674C182.079 147.671 179.758 156.239 175.117 163.38C170.476 170.341 164.228 175.786 156.374 179.713C148.698 183.462 140.308 185.336 131.204 185.336L136.024 175.697C146.556 175.697 156.017 177.66 164.407 181.588C172.797 185.336 179.401 190.87 184.221 198.189C189.219 205.508 191.718 214.612 191.718 225.501C191.718 241.567 185.56 254.062 173.243 262.988C160.926 271.913 142.629 276.376 118.351 276.376H25.1697ZM59.979 249.064H116.209C129.24 249.064 139.237 246.922 146.199 242.638C153.161 238.353 156.642 231.481 156.642 222.02C156.642 212.737 153.161 205.954 146.199 201.67C139.237 197.207 129.24 194.976 116.209 194.976H57.3013V167.932H109.247C121.386 167.932 130.668 165.79 137.095 161.505C143.7 157.221 147.002 150.795 147.002 142.226C147.002 133.479 143.7 126.964 137.095 122.68C130.668 118.395 121.386 116.253 109.247 116.253H59.979V249.064Z" fill="#F5F5DC"/>
<path d="M609.548 86.7959H22.4517V275.222H609.548V86.7959Z" stroke="#2E6F40" stroke-width="4.95858"/>
</svg>
