<svg width="650" height="437" viewBox="0 0 650 437" fill="none" xmlns="http://www.w3.org/2000/svg">
<rect x="5.32764" y="42.623" width="639.344" height="287.705" rx="20" fill="black"/>
<path d="M309.016 367.623V325H340.983V367.623C340.983 376.148 374.727 378.279 378.279 378.279V394.262H271.721V378.279C280.246 378.279 309.016 371.175 309.016 367.623Z" fill="black"/>
<path d="M622.956 279V77.6065H534.918C513.052 77.6065 493.872 81.8262 477.377 90.2656C460.882 98.7049 448.031 110.405 438.825 125.366C429.618 140.326 425.015 157.972 425.015 178.303C425.015 198.443 429.618 216.089 438.825 231.241C448.031 246.202 460.882 257.902 477.377 266.341C493.872 274.78 513.052 279 534.918 279H622.956ZM585.554 247.352H536.644C521.492 247.352 508.449 244.475 497.516 238.721C486.392 232.967 477.857 224.911 471.911 214.554C465.773 204.197 462.704 192.113 462.704 178.303C462.704 164.302 465.773 152.218 471.911 142.052C477.857 131.695 486.392 123.639 497.516 117.885C508.449 112.131 521.492 109.254 536.644 109.254H585.554V247.352Z" fill="#2E6F40"/>
<path d="M223.696 279L156.948 77.6065H195.788L255.343 259.724H236.067L297.924 77.6065H332.448L392.579 259.724H373.878L434.871 77.6065H470.547L403.799 279H364.096L309.144 114.72H319.501L263.687 279H223.696Z" fill="#2E6F40"/>
<path d="M27.0443 279V77.6065H121.411C145.579 77.6065 163.992 82.4016 176.651 91.9918C189.31 101.39 195.639 114.049 195.639 129.969C195.639 140.71 193.146 149.916 188.159 157.589C183.172 165.069 176.459 170.919 168.02 175.139C159.772 179.166 150.757 181.18 140.975 181.18L146.154 170.823C157.471 170.823 167.636 172.933 176.651 177.152C185.666 181.18 192.762 187.126 197.941 194.99C203.311 202.854 205.997 212.636 205.997 224.336C205.997 241.598 199.38 255.025 186.145 264.615C172.911 274.205 153.251 279 127.166 279H27.0443ZM64.4459 249.654H124.864C138.866 249.654 149.607 247.352 157.087 242.749C164.567 238.146 168.307 230.761 168.307 220.596C168.307 210.622 164.567 203.334 157.087 198.73C149.607 193.935 138.866 191.538 124.864 191.538H61.5689V162.479H117.384C130.426 162.479 140.4 160.178 147.305 155.575C154.402 150.971 157.95 144.066 157.95 134.86C157.95 125.461 154.402 118.461 147.305 113.857C140.4 109.254 130.426 106.952 117.384 106.952H64.4459V249.654Z" fill="#2E6F40"/>
<path d="M623.36 74.5901H26.6392V277.049H623.36V74.5901Z" stroke="#2E6F40" stroke-width="10.6557"/>
</svg>
