<svg width="1542" height="426" viewBox="0 0 1542 426" fill="none" xmlns="http://www.w3.org/2000/svg">
<rect x="5.32812" y="42.623" width="639.344" height="287.705" rx="20" fill="black"/>
<path d="M309.016 367.623V325H340.983V367.623C340.983 376.148 374.727 378.279 378.279 378.279V394.262H271.721V378.279C280.246 378.279 309.016 371.175 309.016 367.623Z" fill="black"/>
<path d="M622.956 279V77.6065H534.918C513.052 77.6065 493.872 81.8262 477.377 90.2656C460.882 98.7049 448.031 110.405 438.825 125.366C429.618 140.326 425.015 157.972 425.015 178.303C425.015 198.443 429.618 216.089 438.825 231.241C448.031 246.202 460.882 257.902 477.377 266.341C493.872 274.78 513.052 279 534.918 279H622.956ZM585.554 247.352H536.644C521.492 247.352 508.449 244.475 497.516 238.721C486.392 232.967 477.857 224.911 471.911 214.554C465.773 204.197 462.704 192.113 462.704 178.303C462.704 164.302 465.773 152.218 471.911 142.052C477.857 131.695 486.392 123.639 497.516 117.885C508.449 112.131 521.492 109.254 536.644 109.254H585.554V247.352Z" fill="#2E6F40"/>
<path d="M223.696 279L156.948 77.6065H195.788L255.343 259.724H236.067L297.924 77.6065H332.448L392.579 259.724H373.878L434.871 77.6065H470.547L403.799 279H364.096L309.144 114.72H319.501L263.687 279H223.696Z" fill="#2E6F40"/>
<path d="M27.0443 279V77.6065H121.411C145.579 77.6065 163.992 82.4016 176.651 91.9918C189.31 101.39 195.639 114.049 195.639 129.969C195.639 140.71 193.146 149.916 188.159 157.589C183.172 165.069 176.459 170.919 168.02 175.139C159.772 179.166 150.757 181.18 140.975 181.18L146.154 170.823C157.471 170.823 167.636 172.933 176.651 177.152C185.666 181.18 192.762 187.126 197.941 194.99C203.311 202.854 205.997 212.636 205.997 224.336C205.997 241.598 199.38 255.025 186.145 264.615C172.911 274.205 153.251 279 127.166 279H27.0443ZM64.4459 249.654H124.864C138.866 249.654 149.607 247.352 157.087 242.749C164.567 238.146 168.307 230.761 168.307 220.596C168.307 210.622 164.567 203.334 157.087 198.73C149.607 193.935 138.866 191.538 124.864 191.538H61.5689V162.479H117.384C130.426 162.479 140.4 160.178 147.305 155.575C154.402 150.971 157.95 144.066 157.95 134.86C157.95 125.461 154.402 118.461 147.305 113.857C140.4 109.254 130.426 106.952 117.384 106.952H64.4459V249.654Z" fill="#2E6F40"/>
<path d="M623.361 74.5901H26.6396V277.049H623.361V74.5901Z" stroke="#2E6F40" stroke-width="10.6557"/>
<path d="M824.01 80C824.01 91.3333 820.01 101.133 812.01 109.4C804.01 117.533 792.343 123.4 777.01 127C785.277 129.267 791.544 133 795.81 138.2C800.077 143.267 802.21 149.133 802.21 155.8C802.21 166.333 798.877 175.467 792.21 183.2C785.677 190.933 776.077 196.933 763.41 201.2C750.743 205.333 735.477 207.4 717.61 207.4C710.943 207.4 705.61 207.2 701.61 206.8C701.477 210.533 699.877 213.333 696.81 215.2C693.743 217.067 689.81 218 685.01 218C680.21 218 676.877 216.933 675.01 214.8C673.277 212.667 672.543 209.533 672.81 205.4C674.01 186.733 676.343 167.2 679.81 146.8C683.277 126.267 687.677 106.467 693.01 87.4C693.943 84.0667 695.81 81.7333 698.61 80.4C701.41 79.0667 705.077 78.4 709.61 78.4C717.743 78.4 721.81 80.6667 721.81 85.2C721.81 87.0667 721.41 89.2 720.61 91.6C717.143 102 713.677 116.133 710.21 134C706.743 151.733 704.277 168.667 702.81 184.8C709.21 185.333 714.41 185.6 718.41 185.6C737.077 185.6 750.743 182.933 759.41 177.6C768.21 172.133 772.61 165.2 772.61 156.8C772.61 150.933 770.077 146 765.01 142C760.077 138 751.743 135.8 740.01 135.4C737.343 135.267 735.477 134.6 734.41 133.4C733.343 132.2 732.81 130.267 732.81 127.6C732.81 123.733 733.61 120.6 735.21 118.2C736.81 115.8 739.743 114.533 744.01 114.4C753.477 114.133 762.01 112.733 769.61 110.2C777.343 107.667 783.41 104.133 787.81 99.6C792.21 94.9333 794.41 89.5333 794.41 83.4C794.41 75.6667 790.61 69.6 783.01 65.2C775.41 60.6667 763.743 58.4 748.01 58.4C733.743 58.4 719.943 60.2667 706.61 64C693.277 67.6 681.943 72.2 672.61 77.8C668.343 80.3333 664.743 81.6 661.81 81.6C659.41 81.6 657.543 80.8 656.21 79.2C655.01 77.4667 654.41 75.3333 654.41 72.8C654.41 69.4667 655.077 66.6 656.41 64.2C657.877 61.8 661.277 59.0667 666.61 56C677.81 49.6 690.943 44.6 706.01 41C721.077 37.4 736.477 35.6 752.21 35.6C776.343 35.6 794.344 39.6667 806.21 47.8C818.077 55.9333 824.01 66.6667 824.01 80ZM920.409 146.6C922.142 146.6 923.475 147.467 924.409 149.2C925.342 150.933 925.809 153.133 925.809 155.8C925.809 162.2 923.875 166 920.009 167.2C912.009 170 903.209 171.6 893.609 172C891.075 183.2 886.075 192.2 878.609 199C871.142 205.667 862.675 209 853.209 209C845.209 209 838.342 207.067 832.609 203.2C827.009 199.333 822.742 194.2 819.809 187.8C816.875 181.4 815.409 174.467 815.409 167C815.409 156.867 817.342 147.867 821.209 140C825.075 132 830.409 125.8 837.209 121.4C844.009 116.867 851.542 114.6 859.809 114.6C869.942 114.6 878.075 118.133 884.209 125.2C890.475 132.133 894.142 140.733 895.209 151C901.475 150.6 908.942 149.267 917.609 147C918.675 146.733 919.609 146.6 920.409 146.6ZM854.809 187.8C859.075 187.8 862.742 186.067 865.809 182.6C869.009 179.133 871.142 174.133 872.209 167.6C868.075 164.8 864.875 161.133 862.609 156.6C860.475 152.067 859.409 147.267 859.409 142.2C859.409 140.067 859.609 137.933 860.009 135.8H859.009C853.675 135.8 849.209 138.4 845.609 143.6C842.142 148.667 840.409 155.867 840.409 165.2C840.409 172.533 841.809 178.133 844.609 182C847.542 185.867 850.942 187.8 854.809 187.8ZM929.043 209C923.043 209 918.11 206.267 914.243 200.8C910.51 195.2 908.643 188.267 908.643 180C908.643 170 909.31 160.867 910.643 152.6C911.976 144.2 914.176 135.333 917.243 126C918.576 122 920.443 119.133 922.843 117.4C925.243 115.667 929.043 114.8 934.243 114.8C937.176 114.8 939.176 115.267 940.243 116.2C941.443 117.133 942.043 118.533 942.043 120.4C942.043 121.467 941.31 125.067 939.843 131.2C938.51 136.133 937.443 140.6 936.643 144.6C933.976 158.6 932.643 167.933 932.643 172.6C932.643 175.4 932.976 177.4 933.643 178.6C934.31 179.667 935.376 180.2 936.843 180.2C938.843 180.2 941.31 178.2 944.243 174.2C947.31 170.2 950.51 164.133 953.843 156C957.31 147.867 960.643 137.867 963.843 126C964.91 122 966.51 119.133 968.643 117.4C970.91 115.667 974.243 114.8 978.643 114.8C981.71 114.8 983.843 115.2 985.043 116C986.243 116.667 986.843 118 986.843 120C986.843 123.333 985.176 132.467 981.843 147.4C978.11 164.467 976.243 175 976.243 179C976.243 181.533 976.776 183.533 977.843 185C978.91 186.333 980.31 187 982.043 187C984.71 187 987.843 185.4 991.443 182.2C995.176 178.867 1000.11 173.533 1006.24 166.2C1007.84 164.333 1009.64 163.4 1011.64 163.4C1013.38 163.4 1014.71 164.2 1015.64 165.8C1016.71 167.4 1017.24 169.6 1017.24 172.4C1017.24 177.733 1015.98 181.867 1013.44 184.8C1007.71 191.867 1001.51 197.667 994.843 202.2C988.31 206.733 980.843 209 972.443 209C966.043 209 961.31 206.533 958.243 201.6C955.31 196.667 953.843 189.733 953.843 180.8C951.576 189.867 948.176 196.867 943.643 201.8C939.11 206.6 934.243 209 929.043 209ZM1076.83 163.4C1078.56 163.4 1079.89 164.2 1080.83 165.8C1081.89 167.4 1082.43 169.6 1082.43 172.4C1082.43 177.733 1081.16 181.867 1078.63 184.8C1072.89 191.867 1066.63 197.667 1059.83 202.2C1053.16 206.733 1045.56 209 1037.03 209C1025.29 209 1016.56 203.667 1010.83 193C1005.23 182.333 1002.43 168.533 1002.43 151.6C1002.43 135.333 1004.49 116.8 1008.63 96C1012.89 75.2 1019.09 57.3333 1027.23 42.4C1035.49 27.4667 1045.29 20 1056.63 20C1063.03 20 1068.03 23 1071.63 29C1075.36 34.8667 1077.23 43.3333 1077.23 54.4C1077.23 70.2667 1072.83 88.6667 1064.03 109.6C1055.23 130.533 1043.29 151.267 1028.23 171.8C1029.16 177.267 1030.69 181.2 1032.83 183.6C1034.96 185.867 1037.76 187 1041.23 187C1046.69 187 1051.49 185.467 1055.63 182.4C1059.76 179.2 1065.03 173.8 1071.43 166.2C1073.03 164.333 1074.83 163.4 1076.83 163.4ZM1052.23 39.8C1049.16 39.8 1045.69 45.3333 1041.83 56.4C1037.96 67.4667 1034.56 81.2 1031.63 97.6C1028.69 114 1027.09 129.733 1026.83 144.8C1036.29 129.2 1043.83 113.6 1049.43 98C1055.03 82.2667 1057.83 67.9333 1057.83 55C1057.83 44.8667 1055.96 39.8 1052.23 39.8ZM1155.46 163.4C1157.19 163.4 1158.53 164.2 1159.46 165.8C1160.53 167.4 1161.06 169.6 1161.06 172.4C1161.06 177.733 1159.79 181.867 1157.26 184.8C1152.33 190.8 1145.33 196.333 1136.26 201.4C1127.33 206.467 1117.73 209 1107.46 209C1093.46 209 1082.59 205.2 1074.86 197.6C1067.13 190 1063.26 179.6 1063.26 166.4C1063.26 157.2 1065.19 148.667 1069.06 140.8C1072.93 132.8 1078.26 126.467 1085.06 121.8C1091.99 117.133 1099.79 114.8 1108.46 114.8C1116.19 114.8 1122.39 117.133 1127.06 121.8C1131.73 126.333 1134.06 132.533 1134.06 140.4C1134.06 149.6 1130.73 157.533 1124.06 164.2C1117.53 170.733 1106.39 175.933 1090.66 179.8C1093.99 185.933 1100.33 189 1109.66 189C1115.66 189 1122.46 186.933 1130.06 182.8C1137.79 178.533 1144.46 173 1150.06 166.2C1151.66 164.333 1153.46 163.4 1155.46 163.4ZM1105.06 134.4C1100.13 134.4 1095.93 137.267 1092.46 143C1089.13 148.733 1087.46 155.667 1087.46 163.8V164.2C1095.33 162.333 1101.53 159.533 1106.06 155.8C1110.59 152.067 1112.86 147.733 1112.86 142.8C1112.86 140.267 1112.13 138.267 1110.66 136.8C1109.33 135.2 1107.46 134.4 1105.06 134.4ZM1244.75 147.2C1245.15 147.067 1245.82 147 1246.75 147C1248.75 147 1250.29 147.667 1251.35 149C1252.42 150.333 1252.95 152.133 1252.95 154.4C1252.95 158.533 1252.15 161.8 1250.55 164.2C1248.95 166.467 1246.55 168.133 1243.35 169.2C1237.22 171.2 1230.69 172.2 1223.75 172.2C1217.89 172.2 1212.35 171.4 1207.15 169.8C1203.29 176.067 1199.02 182.533 1194.35 189.2C1189.02 196.8 1184.42 202 1180.55 204.8C1176.69 207.6 1172.29 209 1167.35 209C1161.89 209 1157.55 206.867 1154.35 202.6C1151.29 198.333 1149.35 191.6 1148.55 182.4C1146.95 163.733 1146.15 147.4 1146.15 133.4V126.4C1146.29 122 1147.49 118.933 1149.75 117.2C1152.02 115.467 1155.42 114.6 1159.95 114.6C1163.42 114.6 1165.95 115.4 1167.55 117C1169.29 118.467 1170.15 121 1170.15 124.6C1170.15 139.933 1171.09 159.867 1172.95 184.4C1180.95 172.533 1186.95 163.067 1190.95 156C1188.95 152.133 1187.95 147.533 1187.95 142.2C1187.95 137.667 1188.95 133.267 1190.95 129C1192.95 124.733 1195.69 121.267 1199.15 118.6C1202.62 115.933 1206.55 114.6 1210.95 114.6C1214.82 114.6 1217.95 116 1220.35 118.8C1222.75 121.467 1223.95 125.4 1223.95 130.6C1223.95 136.6 1222.35 143.467 1219.15 151.2C1224.22 150.933 1230.95 149.933 1239.35 148.2L1244.75 147.2ZM1260.2 209C1251.93 209 1245.33 206 1240.4 200C1235.46 194 1233 186.133 1233 176.4C1233 165.733 1235.46 155.667 1240.4 146.2C1245.33 136.6 1251.86 128.933 1260 123.2C1268.26 117.333 1277 114.4 1286.2 114.4C1289.13 114.4 1291.06 115 1292 116.2C1293.06 117.267 1293.93 119.267 1294.6 122.2C1297.4 121.667 1300.33 121.4 1303.4 121.4C1309.93 121.4 1313.2 123.733 1313.2 128.4C1313.2 131.2 1312.2 137.867 1310.2 148.4C1307.13 163.733 1305.6 174.4 1305.6 180.4C1305.6 182.4 1306.06 184 1307 185.2C1308.06 186.4 1309.4 187 1311 187C1313.53 187 1316.6 185.4 1320.2 182.2C1323.8 178.867 1328.66 173.533 1334.8 166.2C1336.4 164.333 1338.2 163.4 1340.2 163.4C1341.93 163.4 1343.26 164.2 1344.2 165.8C1345.26 167.4 1345.8 169.6 1345.8 172.4C1345.8 177.733 1344.53 181.867 1342 184.8C1336.53 191.6 1330.73 197.333 1324.6 202C1318.46 206.667 1312.53 209 1306.8 209C1302.4 209 1298.33 207.533 1294.6 204.6C1291 201.533 1288.26 197.4 1286.4 192.2C1279.46 203.4 1270.73 209 1260.2 209ZM1267.4 188.8C1270.33 188.8 1273.13 187.067 1275.8 183.6C1278.46 180.133 1280.4 175.533 1281.6 169.8L1289 133C1283.4 133.133 1278.2 135.267 1273.4 139.4C1268.73 143.4 1265 148.733 1262.2 155.4C1259.4 162.067 1258 169.133 1258 176.6C1258 180.733 1258.8 183.8 1260.4 185.8C1262.13 187.8 1264.46 188.8 1267.4 188.8ZM1343.74 209C1338.67 209 1335.07 206.333 1332.94 201C1330.94 195.667 1329.94 187.133 1329.94 175.4C1329.94 158.067 1332.41 141.6 1337.34 126C1338.54 122.133 1340.47 119.333 1343.14 117.6C1345.94 115.733 1349.81 114.8 1354.74 114.8C1357.41 114.8 1359.27 115.133 1360.34 115.8C1361.41 116.467 1361.94 117.733 1361.94 119.6C1361.94 121.733 1360.94 126.533 1358.94 134C1357.61 139.333 1356.54 144 1355.74 148C1354.94 152 1354.27 156.933 1353.74 162.8C1358.14 151.333 1363.07 142 1368.54 134.8C1374.01 127.6 1379.34 122.467 1384.54 119.4C1389.87 116.333 1394.74 114.8 1399.14 114.8C1407.81 114.8 1412.14 119.133 1412.14 127.8C1412.14 129.533 1411.54 133.733 1410.34 140.4C1409.27 145.733 1408.74 149.067 1408.74 150.4C1408.74 155.067 1410.41 157.4 1413.74 157.4C1417.47 157.4 1422.27 154.467 1428.14 148.6C1429.87 146.867 1431.67 146 1433.54 146C1435.27 146 1436.61 146.8 1437.54 148.4C1438.61 149.867 1439.14 151.867 1439.14 154.4C1439.14 159.333 1437.81 163.2 1435.14 166C1431.41 169.867 1427.01 173.2 1421.94 176C1417.01 178.667 1411.74 180 1406.14 180C1399.07 180 1393.67 178.2 1389.94 174.6C1386.34 171 1384.54 166.133 1384.54 160C1384.54 158 1384.74 156 1385.14 154C1385.41 151.333 1385.54 149.533 1385.54 148.6C1385.54 146.467 1384.81 145.4 1383.34 145.4C1381.34 145.4 1378.67 147.667 1375.34 152.2C1372.14 156.6 1368.94 162.467 1365.74 169.8C1362.54 177.133 1359.94 184.867 1357.94 193C1356.47 199.267 1354.74 203.533 1352.74 205.8C1350.87 207.933 1347.87 209 1343.74 209ZM1493.36 163.4C1494.82 174.333 1496.96 185.133 1499.76 195.8C1500.29 197.533 1500.56 199.333 1500.56 201.2C1500.56 207.2 1496.89 210.2 1489.56 210.2C1485.42 210.2 1482.22 209.067 1479.96 206.8C1477.82 204.533 1475.82 200.267 1473.96 194L1473.76 193.2C1468.69 199.467 1464.09 203.667 1459.96 205.8C1455.96 207.933 1451.29 209 1445.96 209C1437.82 209 1431.09 206 1425.76 200C1420.56 193.867 1417.96 185.933 1417.96 176.2C1417.96 165.533 1420.22 155.667 1424.76 146.6C1429.29 137.533 1435.49 130.133 1443.36 124.4C1451.22 118.533 1460.02 115 1469.76 113.8C1472.29 88.6 1477.09 66.6667 1484.16 48C1491.36 29.3333 1500.89 20 1512.76 20C1518.49 20 1523.22 22.6 1526.96 27.8C1530.82 33 1532.76 40.8667 1532.76 51.4C1532.76 66.0667 1529.16 83.2 1521.96 102.8C1514.76 122.4 1505.22 142.6 1493.36 163.4ZM1510.56 39.6C1506.69 39.6 1503.02 49.4667 1499.56 69.2C1496.22 88.9333 1493.96 110.4 1492.76 133.6C1507.56 101.6 1514.96 75.6 1514.96 55.6C1514.96 50.5333 1514.49 46.6 1513.56 43.8C1512.76 41 1511.76 39.6 1510.56 39.6ZM1452.96 188.8C1455.62 188.8 1458.16 187.8 1460.56 185.8C1463.09 183.8 1466.29 179.933 1470.16 174.2C1468.82 164.467 1468.16 154.4 1468.16 144C1468.16 139.867 1468.22 136.667 1468.36 134.4C1461.02 136.533 1454.96 141.4 1450.16 149C1445.36 156.6 1442.96 165 1442.96 174.2C1442.96 183.933 1446.29 188.8 1452.96 188.8Z" fill="#2E6F40"/>
<path d="M738.514 328L708.818 238.4H726.098L752.594 319.424H744.018L771.538 238.4H786.898L813.65 319.424H805.33L832.466 238.4H848.339L818.642 328H800.978L776.53 254.912H781.138L756.306 328H738.514ZM880.961 328.896C873.367 328.896 866.711 327.403 860.993 324.416C855.361 321.344 850.967 317.163 847.809 311.872C844.737 306.581 843.201 300.565 843.201 293.824C843.201 286.997 844.695 280.981 847.681 275.776C850.753 270.485 854.935 266.347 860.225 263.36C865.601 260.373 871.703 258.88 878.529 258.88C885.185 258.88 891.116 260.331 896.321 263.232C901.527 266.133 905.623 270.229 908.609 275.52C911.596 280.811 913.09 287.04 913.09 294.208C913.09 294.891 913.047 295.659 912.961 296.512C912.961 297.365 912.919 298.176 912.833 298.944H855.873V288.32H904.385L898.113 291.648C898.199 287.723 897.388 284.267 895.681 281.28C893.975 278.293 891.628 275.947 888.641 274.24C885.74 272.533 882.369 271.68 878.529 271.68C874.604 271.68 871.148 272.533 868.161 274.24C865.26 275.947 862.956 278.336 861.249 281.408C859.628 284.395 858.817 287.936 858.817 292.032V294.592C858.817 298.688 859.756 302.315 861.633 305.472C863.511 308.629 866.156 311.061 869.569 312.768C872.983 314.475 876.908 315.328 881.345 315.328C885.185 315.328 888.641 314.731 891.713 313.536C894.785 312.341 897.516 310.464 899.905 307.904L908.481 317.76C905.409 321.344 901.527 324.117 896.833 326.08C892.225 327.957 886.935 328.896 880.961 328.896ZM959.947 328.896C954.144 328.896 948.981 327.616 944.458 325.056C939.936 322.496 936.352 318.656 933.707 313.536C931.147 308.331 929.867 301.76 929.867 293.824C929.867 285.803 931.189 279.232 933.835 274.112C936.565 268.992 940.192 265.195 944.715 262.72C949.323 260.16 954.4 258.88 959.947 258.88C966.688 258.88 972.619 260.331 977.739 263.232C982.944 266.133 987.04 270.187 990.027 275.392C993.099 280.597 994.635 286.741 994.635 293.824C994.635 300.907 993.099 307.051 990.027 312.256C987.04 317.461 982.944 321.557 977.739 324.544C972.619 327.445 966.688 328.896 959.947 328.896ZM922.059 328V233.024H938.059V275.52L936.779 293.696L937.291 311.872V328H922.059ZM958.155 315.2C961.995 315.2 965.408 314.347 968.395 312.64C971.467 310.933 973.899 308.459 975.691 305.216C977.483 301.973 978.379 298.176 978.379 293.824C978.379 289.387 977.483 285.589 975.691 282.432C973.899 279.189 971.467 276.715 968.395 275.008C965.408 273.301 961.995 272.448 958.155 272.448C954.315 272.448 950.859 273.301 947.787 275.008C944.715 276.715 942.283 279.189 940.491 282.432C938.699 285.589 937.803 289.387 937.803 293.824C937.803 298.176 938.699 301.973 940.491 305.216C942.283 308.459 944.715 310.933 947.787 312.64C950.859 314.347 954.315 315.2 958.155 315.2ZM1033.92 328V238.4H1073.09C1082.82 238.4 1091.35 240.277 1098.69 244.032C1106.03 247.787 1111.74 252.992 1115.84 259.648C1119.94 266.304 1121.98 274.155 1121.98 283.2C1121.98 292.16 1119.94 300.011 1115.84 306.752C1111.74 313.408 1106.03 318.613 1098.69 322.368C1091.35 326.123 1082.82 328 1073.09 328H1033.92ZM1050.56 313.92H1072.32C1079.06 313.92 1084.86 312.64 1089.73 310.08C1094.68 307.52 1098.47 303.936 1101.12 299.328C1103.85 294.72 1105.22 289.344 1105.22 283.2C1105.22 276.971 1103.85 271.595 1101.12 267.072C1098.47 262.464 1094.68 258.88 1089.73 256.32C1084.86 253.76 1079.06 252.48 1072.32 252.48H1050.56V313.92ZM1163.86 328.896C1156.27 328.896 1149.61 327.403 1143.89 324.416C1138.26 321.344 1133.87 317.163 1130.71 311.872C1127.64 306.581 1126.1 300.565 1126.1 293.824C1126.1 286.997 1127.59 280.981 1130.58 275.776C1133.65 270.485 1137.83 266.347 1143.13 263.36C1148.5 260.373 1154.6 258.88 1161.43 258.88C1168.09 258.88 1174.02 260.331 1179.22 263.232C1184.43 266.133 1188.52 270.229 1191.51 275.52C1194.5 280.811 1195.99 287.04 1195.99 294.208C1195.99 294.891 1195.95 295.659 1195.86 296.512C1195.86 297.365 1195.82 298.176 1195.73 298.944H1138.77V288.32H1187.29L1181.01 291.648C1181.1 287.723 1180.29 284.267 1178.58 281.28C1176.87 278.293 1174.53 275.947 1171.54 274.24C1168.64 272.533 1165.27 271.68 1161.43 271.68C1157.5 271.68 1154.05 272.533 1151.06 274.24C1148.16 275.947 1145.86 278.336 1144.15 281.408C1142.53 284.395 1141.72 287.936 1141.72 292.032V294.592C1141.72 298.688 1142.66 302.315 1144.53 305.472C1146.41 308.629 1149.06 311.061 1152.47 312.768C1155.88 314.475 1159.81 315.328 1164.25 315.328C1168.09 315.328 1171.54 314.731 1174.61 313.536C1177.69 312.341 1180.42 310.464 1182.81 307.904L1191.38 317.76C1188.31 321.344 1184.43 324.117 1179.73 326.08C1175.13 327.957 1169.83 328.896 1163.86 328.896ZM1226.08 328.896C1220.36 328.896 1214.86 328.171 1209.57 326.72C1204.36 325.184 1200.22 323.349 1197.15 321.216L1203.29 309.056C1206.37 311.019 1210.04 312.64 1214.3 313.92C1218.57 315.2 1222.84 315.84 1227.1 315.84C1232.14 315.84 1235.76 315.157 1237.98 313.792C1240.29 312.427 1241.44 310.592 1241.44 308.288C1241.44 306.411 1240.67 305.003 1239.13 304.064C1237.6 303.04 1235.59 302.272 1233.12 301.76C1230.64 301.248 1227.87 300.779 1224.8 300.352C1221.81 299.925 1218.78 299.371 1215.71 298.688C1212.72 297.92 1209.99 296.853 1207.52 295.488C1205.04 294.037 1203.04 292.117 1201.5 289.728C1199.97 287.339 1199.2 284.181 1199.2 280.256C1199.2 275.904 1200.44 272.149 1202.91 268.992C1205.39 265.749 1208.84 263.275 1213.28 261.568C1217.8 259.776 1223.13 258.88 1229.28 258.88C1233.89 258.88 1238.54 259.392 1243.23 260.416C1247.92 261.44 1251.81 262.891 1254.88 264.768L1248.73 276.928C1245.49 274.965 1242.21 273.643 1238.88 272.96C1235.64 272.192 1232.39 271.808 1229.15 271.808C1224.29 271.808 1220.66 272.533 1218.27 273.984C1215.97 275.435 1214.81 277.269 1214.81 279.488C1214.81 281.536 1215.58 283.072 1217.12 284.096C1218.65 285.12 1220.66 285.931 1223.13 286.528C1225.61 287.125 1228.34 287.637 1231.33 288.064C1234.4 288.405 1237.43 288.96 1240.41 289.728C1243.4 290.496 1246.13 291.563 1248.61 292.928C1251.17 294.208 1253.21 296.043 1254.75 298.432C1256.29 300.821 1257.05 303.936 1257.05 307.776C1257.05 312.043 1255.77 315.755 1253.21 318.912C1250.74 322.069 1247.2 324.544 1242.59 326.336C1237.98 328.043 1232.48 328.896 1226.08 328.896ZM1264.43 328V259.648H1280.43V328H1264.43ZM1272.5 248.384C1269.51 248.384 1267.04 247.445 1265.07 245.568C1263.2 243.691 1262.26 241.429 1262.26 238.784C1262.26 236.053 1263.2 233.792 1265.07 232C1267.04 230.123 1269.51 229.184 1272.5 229.184C1275.48 229.184 1277.92 230.08 1279.79 231.872C1281.76 233.579 1282.74 235.755 1282.74 238.4C1282.74 241.216 1281.8 243.605 1279.92 245.568C1278.04 247.445 1275.57 248.384 1272.5 248.384ZM1326.01 353.728C1319.69 353.728 1313.51 352.875 1307.45 351.168C1301.48 349.547 1296.57 347.157 1292.73 344L1299.9 331.968C1302.88 334.443 1306.64 336.405 1311.16 337.856C1315.77 339.392 1320.42 340.16 1325.11 340.16C1332.62 340.16 1338.13 338.411 1341.63 334.912C1345.12 331.499 1346.87 326.336 1346.87 319.424V307.264L1348.15 291.776L1347.64 276.288V259.648H1362.87V317.632C1362.87 330.005 1359.72 339.093 1353.4 344.896C1347.09 350.784 1337.96 353.728 1326.01 353.728ZM1323.96 324.928C1317.48 324.928 1311.59 323.563 1306.3 320.832C1301.09 318.016 1296.95 314.133 1293.88 309.184C1290.89 304.235 1289.4 298.432 1289.4 291.776C1289.4 285.205 1290.89 279.445 1293.88 274.496C1296.95 269.547 1301.09 265.707 1306.3 262.976C1311.59 260.245 1317.48 258.88 1323.96 258.88C1329.76 258.88 1334.97 260.032 1339.58 262.336C1344.19 264.64 1347.85 268.224 1350.59 273.088C1353.4 277.952 1354.81 284.181 1354.81 291.776C1354.81 299.371 1353.4 305.643 1350.59 310.592C1347.85 315.456 1344.19 319.083 1339.58 321.472C1334.97 323.776 1329.76 324.928 1323.96 324.928ZM1326.39 311.36C1330.4 311.36 1333.99 310.549 1337.15 308.928C1340.3 307.221 1342.73 304.917 1344.44 302.016C1346.23 299.029 1347.13 295.616 1347.13 291.776C1347.13 287.936 1346.23 284.565 1344.44 281.664C1342.73 278.677 1340.3 276.416 1337.15 274.88C1333.99 273.259 1330.4 272.448 1326.39 272.448C1322.38 272.448 1318.76 273.259 1315.51 274.88C1312.36 276.416 1309.88 278.677 1308.09 281.664C1306.38 284.565 1305.53 287.936 1305.53 291.776C1305.53 295.616 1306.38 299.029 1308.09 302.016C1309.88 304.917 1312.36 307.221 1315.51 308.928C1318.76 310.549 1322.38 311.36 1326.39 311.36ZM1416.29 258.88C1421.75 258.88 1426.62 259.947 1430.88 262.08C1435.24 264.213 1438.65 267.499 1441.12 271.936C1443.6 276.288 1444.84 281.92 1444.84 288.832V328H1428.84V290.88C1428.84 284.821 1427.39 280.299 1424.48 277.312C1421.67 274.325 1417.7 272.832 1412.58 272.832C1408.83 272.832 1405.5 273.6 1402.6 275.136C1399.7 276.672 1397.43 278.976 1395.81 282.048C1394.28 285.035 1393.51 288.832 1393.51 293.44V328H1377.51V259.648H1392.74V278.08L1390.05 272.448C1392.44 268.096 1395.9 264.768 1400.42 262.464C1405.03 260.075 1410.32 258.88 1416.29 258.88Z" fill="black"/>
</svg>
