<svg width="652" height="507" viewBox="0 0 652 507" fill="none" xmlns="http://www.w3.org/2000/svg">
<rect x="6.32812" y="46.0678" width="639.344" height="297.458" rx="20" fill="#2E6F40"/>
<path d="M310.015 384.085V340.017H341.982V384.085C341.982 392.899 375.726 395.102 379.277 395.102V411.628H272.72V395.102C281.245 395.102 310.015 387.757 310.015 384.085Z" fill="#2E6F40" stroke="#2E6F40" stroke-width="7.71187"/>
<path d="M624 80H28V289H624V80Z" stroke="#F5F5DC" stroke-width="11.017"/>
<rect x="28" y="80" width="596" height="208" fill="#2E6F40"/>
<path d="M624.039 288V79.7796H533.017C510.41 79.7796 490.58 84.1423 473.525 92.8677C456.471 101.593 443.185 113.69 433.666 129.158C424.147 144.625 419.388 162.869 419.388 183.89C419.388 204.712 424.147 222.956 433.666 238.622C443.185 254.09 456.471 266.186 473.525 274.912C490.58 283.637 510.41 288 533.017 288H624.039ZM585.369 255.28H534.802C519.136 255.28 505.651 252.305 494.347 246.356C482.846 240.407 474.021 232.078 467.874 221.369C461.528 210.661 458.355 198.168 458.355 183.89C458.355 169.414 461.528 156.92 467.874 146.41C474.021 135.702 482.846 127.373 494.347 121.424C505.651 115.474 519.136 112.5 534.802 112.5H585.369V255.28Z" fill="#F5F5DC"/>
<path d="M227.222 288L158.212 79.7796H198.369L259.943 268.07H240.013L303.966 79.7796H339.661L401.83 268.07H382.495L445.556 79.7796H482.441L413.431 288H372.382L315.567 118.152H326.276L268.569 288H227.222Z" fill="#F5F5DC"/>
<path d="M27.961 288V79.7796H125.527C150.514 79.7796 169.551 84.7372 182.639 94.6524C195.727 104.369 202.271 117.458 202.271 133.917C202.271 145.022 199.693 154.541 194.537 162.473C189.381 170.207 182.441 176.255 173.715 180.618C165.188 184.782 155.868 186.864 145.754 186.864L151.109 176.156C162.809 176.156 173.319 178.337 182.639 182.7C191.959 186.864 199.297 193.012 204.651 201.142C210.203 209.273 212.98 219.386 212.98 231.483C212.98 249.33 206.138 263.212 192.455 273.127C178.772 283.042 158.446 288 131.476 288H27.961ZM66.6305 257.659H129.097C143.573 257.659 154.678 255.28 162.412 250.52C170.146 245.761 174.013 238.126 174.013 227.616C174.013 217.304 170.146 209.769 162.412 205.009C154.678 200.052 143.573 197.573 129.097 197.573H63.656V167.53H121.363C134.848 167.53 145.159 165.15 152.298 160.391C159.636 155.631 163.304 148.492 163.304 138.974C163.304 129.257 159.636 122.019 152.298 117.259C145.159 112.5 134.848 110.12 121.363 110.12H66.6305V257.659Z" fill="#F5F5DC"/>
</svg>
